#tb 0: 1/25
0,          0,          0,        1,  6220800, 0x74fa6288
0,          1,          1,        1,  6220800, 0x4b484b90
0,          2,          2,        1,  6220800, 0x35dc9ad0
0,          3,          3,        1,  6220800, 0x7f66820e
0,          4,          4,        1,  6220800, 0x092d1465
0,          5,          5,        1,  6220800, 0x446a3381
0,          6,          6,        1,  6220800, 0x1de58cdd
0,          7,          7,        1,  6220800, 0x869efb80
0,          8,          8,        1,  6220800, 0xdd0c76df
0,          9,          9,        1,  6220800, 0x25f95fbe
0,         10,         10,        1,  6220800, 0xf85dae8d
0,         11,         11,        1,  6220800, 0xe9bb3554
0,         12,         12,        1,  6220800, 0x1e37244a
0,         13,         13,        1,  6220800, 0xb730e07a
0,         14,         14,        1,  6220800, 0x515f2342
0,         15,         15,        1,  6220800, 0xb9dfd057
0,         16,         16,        1,  6220800, 0x41e19d52
0,         17,         17,        1,  6220800, 0x047be35f
0,         18,         18,        1,  6220800, 0x970245a2
0,         19,         19,        1,  6220800, 0xc7bd33a6
0,         20,         20,        1,  6220800, 0x1ed30dcf
0,         21,         21,        1,  6220800, 0xa24b5680
0,         22,         22,        1,  6220800, 0x3ae51352
0,         23,         23,        1,  6220800, 0x7cdc8ca6
0,         24,         24,        1,  6220800, 0x7a010858
0,         25,         25,        1,  6220800, 0x2ca6890d
0,         26,         26,        1,  6220800, 0xb1f25772
0,         27,         27,        1,  6220800, 0xcfc7b7e7
0,         28,         28,        1,  6220800, 0x334a6355
0,         29,         29,        1,  6220800, 0x190fe5b4
0,         30,         30,        1,  6220800, 0x85e5a8f1
0,         31,         31,        1,  6220800, 0x9d99390c
0,         32,         32,        1,  6220800, 0x36ca29e0
0,         33,         33,        1,  6220800, 0x3940c6bf
0,         34,         34,        1,  6220800, 0x99ca7bf9
0,         35,         35,        1,  6220800, 0x1adc706d
0,         36,         36,        1,  6220800, 0x5363a0af
0,         37,         37,        1,  6220800, 0x22cac32f
0,         38,         38,        1,  6220800, 0x10319e67
0,         39,         39,        1,  6220800, 0xd83fa26f
0,         40,         40,        1,  6220800, 0x95c741cc
0,         41,         41,        1,  6220800, 0xe0da63b8
0,         42,         42,        1,  6220800, 0x34f96b3a
0,         43,         43,        1,  6220800, 0x14db8ad2
0,         44,         44,        1,  6220800, 0x8f96ba08
0,         45,         45,        1,  6220800, 0x4067d0e7
0,         46,         46,        1,  6220800, 0xbef73ab9
0,         47,         47,        1,  6220800, 0x6919142d
0,         48,         48,        1,  6220800, 0x5080f26f
0,         49,         49,        1,  6220800, 0x90624c07
0,         50,         50,        1,  6220800, 0xd1d06b41
0,         51,         51,        1,  6220800, 0x7a5a6349
0,         52,         52,        1,  6220800, 0xc678f831
0,         53,         53,        1,  6220800, 0x0bea336c
0,         54,         54,        1,  6220800, 0xaf35901e
0,         55,         55,        1,  6220800, 0xdb7bfb53
0,         56,         56,        1,  6220800, 0xea5c6c99
0,         57,         57,        1,  6220800, 0x755426d5
0,         58,         58,        1,  6220800, 0x947c3eb7
0,         59,         59,        1,  6220800, 0xac3d25e3
0,         60,         60,        1,  6220800, 0xb6266c24
0,         61,         61,        1,  6220800, 0x6fac3eb1
0,         62,         62,        1,  6220800, 0xa32dd548
0,         63,         63,        1,  6220800, 0x1be314e8
0,         64,         64,        1,  6220800, 0x07879fba
0,         65,         65,        1,  6220800, 0xb4c0ac2f
0,         66,         66,        1,  6220800, 0xa495e835
0,         67,         67,        1,  6220800, 0xd668e948
0,         68,         68,        1,  6220800, 0x6d9d0ed3
0,         69,         69,        1,  6220800, 0x46bee398
0,         70,         70,        1,  6220800, 0xd894249d
0,         71,         71,        1,  6220800, 0x9f16757f
0,         72,         72,        1,  6220800, 0x0268888d
0,         73,         73,        1,  6220800, 0xef2ba48e
0,         74,         74,        1,  6220800, 0x4b356be2
0,         75,         75,        1,  6220800, 0xa9534a59
0,         76,         76,        1,  6220800, 0xaff146c9
0,         77,         77,        1,  6220800, 0x34a89efa
0,         78,         78,        1,  6220800, 0x733f8b3c
0,         79,         79,        1,  6220800, 0xdd289522
0,         80,         80,        1,  6220800, 0x41ab9b53
0,         81,         81,        1,  6220800, 0x2782517a
0,         82,         82,        1,  6220800, 0x97a3df46
0,         83,         83,        1,  6220800, 0xbf324912
0,         84,         84,        1,  6220800, 0xcc4b0e0a
0,         85,         85,        1,  6220800, 0xe555bac0
0,         86,         86,        1,  6220800, 0x886a9aea
0,         87,         87,        1,  6220800, 0xc6450e5e
0,         88,         88,        1,  6220800, 0x15fe4a38
0,         89,         89,        1,  6220800, 0x97edeb43
0,         90,         90,        1,  6220800, 0xef356e00
0,         91,         91,        1,  6220800, 0x51f48429
0,         92,         92,        1,  6220800, 0xe9b3acf4
0,         93,         93,        1,  6220800, 0x2d746c6d
0,         94,         94,        1,  6220800, 0xae75cded
0,         95,         95,        1,  6220800, 0x60b44101
0,         96,         96,        1,  6220800, 0xcaba6a34
0,         97,         97,        1,  6220800, 0xe78e4e8b
0,         98,         98,        1,  6220800, 0x8fdf1e5b
0,         99,         99,        1,  6220800, 0x1484b0c8
0,        100,        100,        1,  6220800, 0xec036f66
0,        101,        101,        1,  6220800, 0x909f1159
0,        102,        102,        1,  6220800, 0x173ec1c2
0,        103,        103,        1,  6220800, 0x7de53759
0,        104,        104,        1,  6220800, 0x2a9a4890
0,        105,        105,        1,  6220800, 0x954f8e21
0,        106,        106,        1,  6220800, 0x8d6b4fb9
0,        107,        107,        1,  6220800, 0xe471776c
0,        108,        108,        1,  6220800, 0xff6f8fa8
0,        109,        109,        1,  6220800, 0x5b06fcdc
0,        110,        110,        1,  6220800, 0xc7b99da5
0,        111,        111,        1,  6220800, 0xd53da527
0,        112,        112,        1,  6220800, 0x7264762f
0,        113,        113,        1,  6220800, 0x58d8b38e
0,        114,        114,        1,  6220800, 0x336e2899
0,        115,        115,        1,  6220800, 0x521e330e
0,        116,        116,        1,  6220800, 0x20f12ce4
0,        117,        117,        1,  6220800, 0xdab5808a
0,        118,        118,        1,  6220800, 0x55f2e35e
0,        119,        119,        1,  6220800, 0xb12787af
0,        120,        120,        1,  6220800, 0x7351541a
0,        121,        121,        1,  6220800, 0x1e5126e6
0,        122,        122,        1,  6220800, 0x88005ef3
0,        123,        123,        1,  6220800, 0xc56d81e0
0,        124,        124,        1,  6220800, 0x36376e14
0,        125,        125,        1,  6220800, 0x4cc7d454
0,        126,        126,        1,  6220800, 0x02430b48
0,        127,        127,        1,  6220800, 0x1a5e5d2d
0,        128,        128,        1,  6220800, 0xee2e9d30
0,        129,        129,        1,  6220800, 0x8323f658
0,        130,        130,        1,  6220800, 0x9c856045
0,        131,        131,        1,  6220800, 0x642d6edd
0,        132,        132,        1,  6220800, 0x1277da01
0,        133,        133,        1,  6220800, 0xee9e70d2
0,        134,        134,        1,  6220800, 0x2d4312d2
0,        135,        135,        1,  6220800, 0x95f62de9
0,        136,        136,        1,  6220800, 0xdd0d2b2c
0,        137,        137,        1,  6220800, 0x9f2e6e3c
0,        138,        138,        1,  6220800, 0x7708b1c1
0,        139,        139,        1,  6220800, 0xe3e2eb12
0,        140,        140,        1,  6220800, 0xac367b88
0,        141,        141,        1,  6220800, 0xb5a79c60
0,        142,        142,        1,  6220800, 0x3c0b3391
0,        143,        143,        1,  6220800, 0x74649c72
0,        144,        144,        1,  6220800, 0x116eb877
0,        145,        145,        1,  6220800, 0xf7a1b709
0,        146,        146,        1,  6220800, 0x41cc993f
0,        147,        147,        1,  6220800, 0x0e169a18
0,        148,        148,        1,  6220800, 0x85b2b5e2
0,        149,        149,        1,  6220800, 0xf6427617
0,        150,        150,        1,  6220800, 0x988a1efa
0,        151,        151,        1,  6220800, 0xbc12bf94
0,        152,        152,        1,  6220800, 0x0be39ef2
0,        153,        153,        1,  6220800, 0x19750ef1
0,        154,        154,        1,  6220800, 0xcc7db738
0,        155,        155,        1,  6220800, 0xcc5a2243
0,        156,        156,        1,  6220800, 0xf064479b
0,        157,        157,        1,  6220800, 0xc5bec4ae
0,        158,        158,        1,  6220800, 0x22783176
0,        159,        159,        1,  6220800, 0x6e8b719f
0,        160,        160,        1,  6220800, 0x126fb085
0,        161,        161,        1,  6220800, 0x8de9a070
0,        162,        162,        1,  6220800, 0x777e6713
0,        163,        163,        1,  6220800, 0xd794f363
0,        164,        164,        1,  6220800, 0x520235f6
0,        165,        165,        1,  6220800, 0xdee1f0f2
0,        166,        166,        1,  6220800, 0x54e20c74
0,        167,        167,        1,  6220800, 0xb9d16cd3
0,        168,        168,        1,  6220800, 0x0ae19463
0,        169,        169,        1,  6220800, 0xb22fe6e9
0,        170,        170,        1,  6220800, 0xeeebf2b6
0,        171,        171,        1,  6220800, 0xcdcab1eb
0,        172,        172,        1,  6220800, 0xa39c1628
0,        173,        173,        1,  6220800, 0xdc05a5f8
0,        174,        174,        1,  6220800, 0xa0729dc9
0,        175,        175,        1,  6220800, 0x67a00410
0,        176,        176,        1,  6220800, 0x617a7701
0,        177,        177,        1,  6220800, 0xa5ed378e
0,        178,        178,        1,  6220800, 0xa7b24102
0,        179,        179,        1,  6220800, 0xc7758a44
0,        180,        180,        1,  6220800, 0x5e9dab8f
0,        181,        181,        1,  6220800, 0x930bd107
0,        182,        182,        1,  6220800, 0xd612af39
0,        183,        183,        1,  6220800, 0x5a6d6b2b
0,        184,        184,        1,  6220800, 0x34c540c5
0,        185,        185,        1,  6220800, 0xdb84723b
0,        186,        186,        1,  6220800, 0x953569f5
0,        187,        187,        1,  6220800, 0xa00517e1
0,        188,        188,        1,  6220800, 0x9ffd06fa
0,        189,        189,        1,  6220800, 0xa46ad354
0,        190,        190,        1,  6220800, 0x6642fd44
0,        191,        191,        1,  6220800, 0x8af04e2d
0,        192,        192,        1,  6220800, 0x7d3b2f0e
0,        193,        193,        1,  6220800, 0x5452eafd
0,        194,        194,        1,  6220800, 0x04c0d5a9
0,        195,        195,        1,  6220800, 0x5072b486
0,        196,        196,        1,  6220800, 0x78725cb3
0,        197,        197,        1,  6220800, 0x520b622f
0,        198,        198,        1,  6220800, 0x3b603a40
0,        199,        199,        1,  6220800, 0x824d1db1
0,        200,        200,        1,  6220800, 0x8e319cdf
0,        201,        201,        1,  6220800, 0x6c5bf056
0,        202,        202,        1,  6220800, 0x3fd3fc14
0,        203,        203,        1,  6220800, 0x9e11d020
0,        204,        204,        1,  6220800, 0x14eba145
0,        205,        205,        1,  6220800, 0x8083cafc
0,        206,        206,        1,  6220800, 0x0d6cb80d
0,        207,        207,        1,  6220800, 0xcd1fbc2c
0,        208,        208,        1,  6220800, 0xcc14b310
0,        209,        209,        1,  6220800, 0x4f8a1a21
0,        210,        210,        1,  6220800, 0xb918d7e4
